<svg width="25" height="25" viewBox="0 0 25 25" fill="none" xmlns="http://www.w3.org/2000/svg">
<path d="M7.94019 12.4236V14.3252C7.94019 15.814 9.15166 17.0254 10.6404 17.0254H12.542C13.6766 17.0254 14.7405 16.5825 15.5436 15.7838L23.4633 7.86407C23.8988 7.4286 24.1429 6.84547 24.1429 6.22917C24.1429 3.25167 21.7199 0.828732 18.7424 0.828732C18.1246 0.828732 17.543 1.06831 17.1075 1.5083L9.18472 9.42804C8.3831 10.2297 7.94308 11.295 7.94308 12.4296L7.94019 12.4236ZM9.48317 12.4236C9.48317 11.7019 9.76494 11.0238 10.2743 10.5145L18.4216 2.36716H18.741C20.8671 2.36716 22.5985 4.0985 22.5985 6.22461V6.54406L14.4512 14.6914C13.9419 15.2007 13.2638 15.4825 12.542 15.4825H10.6404C10.0045 15.4825 9.48317 14.9611 9.48317 14.3252L9.48317 12.4236Z" fill="white" stroke="white" stroke-width="0.342857"/>
<path d="M7.33897 23.7491C8.75088 23.9842 10.336 23.9721 11.8669 23.9646H12.7544H13.6494C15.0613 23.9766 16.3963 23.9842 17.8008 23.7491C20.8401 23.2443 23.224 20.8259 23.7255 17.7307C23.7918 17.3329 23.8445 16.9366 23.8957 16.5388C23.9229 16.3264 23.8566 16.1184 23.7149 15.9557C23.5688 15.7899 23.3518 15.6935 23.1318 15.6935C22.7415 15.6935 22.4145 15.9903 22.3648 16.3836C22.3151 16.7845 22.2563 17.1823 22.1915 17.5801C21.7938 19.9563 19.9539 21.8186 17.6123 22.2136C14.2913 22.7727 10.9189 22.7772 7.59493 22.2257C5.21866 21.8279 3.35173 19.9655 2.95403 17.589C2.67979 15.9451 2.54116 14.271 2.54116 12.6091C2.54116 10.947 2.68431 9.22627 2.9661 7.56737C3.36388 5.22578 5.22333 3.39052 7.59967 2.99282C7.99745 2.92652 8.39828 2.86926 8.7961 2.81954C9.18937 2.76981 9.48624 2.44132 9.48624 2.05256C9.48624 1.82955 9.3898 1.61709 9.22405 1.46642C9.06131 1.32025 8.85337 1.25848 8.64092 1.28108C8.24314 1.33081 7.84682 1.38505 7.45356 1.45135C4.36007 1.95313 1.94164 4.33692 1.43246 7.37601C1.14767 9.09983 1 10.8598 1 12.6063C1 14.3542 1.14616 16.1172 1.43246 17.8409C1.93725 20.8696 4.31047 23.2413 7.33783 23.7463L7.33897 23.7491Z" fill="white" stroke="white" stroke-width="0.342857"/>
</svg>
