<svg width="73" height="59" viewBox="0 0 73 59" fill="none" xmlns="http://www.w3.org/2000/svg">
<path d="M57.8309 57.8309H56.9448H45.9574H45.0714V56.9449V53.1854C42.8982 54.5761 40.6862 55.6639 38.4777 56.4266C35.7794 57.3585 33.0127 57.8309 30.2544 57.8309H28.7925C24.5377 57.8309 20.5121 56.8866 16.8278 55.0241C13.1601 53.1702 9.73795 50.3583 6.65627 46.6667L6.63422 46.6403L6.61428 46.6123C4.71732 43.9437 3.27337 41.1443 2.32256 38.2918C1.36932 35.4321 0.885986 32.4424 0.885986 29.4056C0.885986 24.7087 1.91537 20.3545 3.94556 16.464C5.97014 12.5842 9.0412 9.06933 13.0735 6.01704L13.092 6.00298L13.1113 5.98992C15.6078 4.29874 18.2442 3.01166 20.9472 2.16446C23.6536 1.31617 26.4994 0.886047 29.4056 0.886047C32.4415 0.886047 35.4067 1.35724 38.2189 2.28653C40.5725 3.06432 42.8717 4.18061 45.0714 5.61206V1.77207V0.886047H45.9574H56.9448H57.8309V1.77207V56.9449V57.8309ZM22.0158 43.2532C24.3511 44.4598 26.7578 45.0715 29.1698 45.0715H29.8771C34.6242 45.0715 38.6625 42.9079 42.2218 38.4572C44.1127 35.5804 45.0714 32.7097 45.0714 29.9244V29.1699C45.0714 23.6931 42.5264 19.3285 37.2921 15.8283C34.6503 14.3799 31.9652 13.6455 29.3113 13.6455C24.2798 13.6455 20.1331 15.8096 16.6353 20.2608C14.6513 23.2014 13.6454 26.2461 13.6454 29.3113C13.6454 35.1888 16.3836 39.7497 22.0158 43.2532Z" fill="black"/>
<path d="M29.4056 1.77204C23.7469 1.77204 18.4811 3.42251 13.6083 6.72345C5.71745 12.6966 1.77204 20.2573 1.77204 29.4056C1.77204 35.3159 3.62686 40.8803 7.33648 46.0989C13.3725 53.3296 20.5245 56.9449 28.7926 56.9449H30.2544C35.5988 56.9449 40.8332 55.1372 45.9575 51.5219V56.9449H56.9449V1.77204H45.9575V7.19502H45.816C40.786 3.5797 35.3159 1.77204 29.4056 1.77204ZM29.8772 45.9575H29.1698C26.592 45.9575 24.0612 45.313 21.5777 44.0241C15.6989 40.3773 12.7595 35.4731 12.7595 29.3113C12.7595 26.0418 13.8126 22.8509 15.9189 19.7386C19.5657 15.0858 24.0298 12.7595 29.3113 12.7595C32.1407 12.7595 34.9543 13.5297 37.7523 15.0701C43.2224 18.7169 45.9575 23.4168 45.9575 29.1698V29.9243C45.9575 32.9109 44.9515 35.9289 42.9395 38.9783C39.2298 43.6311 34.8757 45.9575 29.8772 45.9575ZM29.4056 0C32.5362 0 35.5949 0.486248 38.4969 1.44524C40.4382 2.08676 42.3423 2.95085 44.1854 4.02522V0H58.7169V58.7169H44.1854V54.7626C42.3935 55.8003 40.5802 56.6379 38.7669 57.2641C35.9755 58.2281 33.1115 58.7169 30.2544 58.7169H28.7926C24.3976 58.7169 20.2376 57.7405 16.4281 55.8149C12.6521 53.9061 9.1356 51.0193 5.97613 47.2345L5.93204 47.1817L5.89217 47.1256C3.94438 44.3855 2.4606 41.5077 1.48204 38.572C0.498636 35.6218 0 32.5377 0 29.4056C0 24.5645 1.06321 20.0724 3.16009 16.054C5.24576 12.0572 8.40119 8.44257 12.5388 5.31056L12.5759 5.28246L12.6144 5.25634C15.1824 3.51672 17.8968 2.192 20.6822 1.31897C23.4745 0.443763 26.4095 0 29.4056 0ZM36.8321 16.5865C34.3333 15.2228 31.8034 14.5315 29.3113 14.5315C24.5792 14.5315 20.6666 16.5765 17.352 20.7829C15.4805 23.5661 14.5315 26.4352 14.5315 29.3113C14.5315 34.8471 17.123 39.1559 22.4537 42.4821C24.6522 43.6124 26.9114 44.1854 29.1698 44.1854H29.8772C34.3263 44.1854 38.13 42.1413 41.504 37.9361C43.2834 35.2179 44.1854 32.5229 44.1854 29.9243V29.1698C44.1854 24.0229 41.7798 19.9061 36.8321 16.5865Z" fill="white"/>
<path d="M72.9538 0.24054H61.4355V58.7178H72.9538V0.24054Z" fill="white"/>
<path d="M69.8526 56.5278L63.4104 54.3518V52.5868L69.8526 50.4108V52.072L68.5378 52.4787V54.5033L69.8526 54.9073V56.5278ZM67.3718 52.8331L65.2453 53.4897L67.3718 54.1489V52.8331ZM71.5573 43.9127C71.6002 44.0841 71.6318 44.2581 71.6521 44.4337C71.6763 44.7062 71.6864 44.9797 71.6822 45.2532C71.6893 45.5475 71.6462 45.8409 71.5547 46.1207C71.479 46.3428 71.3556 46.5458 71.1932 46.7152C71.0404 46.8727 70.8542 46.9938 70.6483 47.0696C70.4303 47.1504 70.201 47.1965 69.9687 47.206C69.9698 47.6114 69.8862 48.0126 69.7232 48.3838C69.5603 48.755 69.3216 49.0881 69.0224 49.3617C68.3513 49.9135 67.4977 50.1936 66.6302 50.1467C65.7379 50.1942 64.8615 49.897 64.1821 49.3165C63.8763 49.0222 63.6374 48.6654 63.4818 48.2705C63.3262 47.8756 63.2574 47.4518 63.2801 47.0279C63.2579 46.6045 63.3264 46.1812 63.4812 45.7865C63.636 45.3918 63.8735 45.0347 64.1777 44.7394C64.8585 44.1532 65.7403 43.854 66.6373 43.9047C67.3176 43.8865 67.9905 44.0501 68.5865 44.3787C69.1157 44.6773 69.525 45.1501 69.7445 45.7166C69.8616 45.7274 69.9797 45.7143 70.0916 45.6782C70.2035 45.6421 70.307 45.5838 70.3957 45.5066C70.5361 45.2985 70.5988 45.0476 70.5729 44.7978C70.5722 44.659 70.5535 44.5208 70.5171 44.3867C70.4916 44.2785 70.4545 44.1733 70.4064 44.0731V43.9127H71.5573ZM68.2649 46.0064C68.0664 45.8626 67.8446 45.7544 67.6092 45.6865C67.2895 45.6029 66.9596 45.565 66.6293 45.574C66.2987 45.5672 65.9688 45.6072 65.6493 45.6927C65.4102 45.7571 65.185 45.8649 64.9848 46.0108C64.8216 46.1334 64.6916 46.2948 64.6065 46.4804C64.5311 46.6509 64.4922 46.8353 64.4922 47.0217C64.4897 47.2073 64.5259 47.3914 64.5985 47.5622C64.6864 47.7453 64.816 47.9052 64.9769 48.0291C65.1765 48.1779 65.4026 48.2873 65.6431 48.3517C65.9658 48.4397 66.2993 48.4812 66.6337 48.4748C66.9657 48.4827 67.2972 48.4433 67.6181 48.3579C67.8544 48.2923 68.0766 48.1839 68.2737 48.038C68.4393 47.916 68.5711 47.7538 68.6565 47.5666C68.7319 47.3949 68.7708 47.2093 68.7708 47.0217C68.7706 46.8304 68.7286 46.6414 68.6476 46.468C68.5609 46.2843 68.4293 46.1255 68.2649 46.0064ZM69.9864 40.3438C70.034 41.0642 69.8102 41.7763 69.3591 42.34C69.1223 42.5825 68.8357 42.7706 68.519 42.8913C68.2023 43.012 67.8631 43.0624 67.525 43.0391H63.4104V41.4212H67.4294C67.7811 41.4472 68.1319 41.3582 68.4288 41.1678C68.5449 41.0663 68.6352 40.9386 68.6923 40.7954C68.7495 40.6521 68.7718 40.4974 68.7575 40.3438C68.7704 40.1922 68.7487 40.0397 68.6941 39.8977C68.6394 39.7558 68.5533 39.6281 68.4421 39.5242C68.1445 39.3232 67.7873 39.2294 67.4294 39.2584H63.4104V37.6406H67.5206C67.8561 37.6187 68.1924 37.6682 68.5075 37.7856C68.8225 37.903 69.1091 38.0858 69.3485 38.3219C69.8129 38.8889 70.0414 39.6129 69.9864 40.3438ZM69.8526 37.0983L63.4104 34.9187V33.1538L69.8526 30.9768V32.6425L68.5378 33.0448V35.0702L69.8526 35.4725V37.0983ZM67.3718 33.4036L65.2453 34.0611L67.3718 34.7149V33.4036ZM69.8526 24.3795V26.3527L67.4905 28.1495V28.729H69.8526V30.3371H63.4104V27.7455C63.4071 27.4326 63.4296 27.12 63.4777 26.8108C63.5209 26.5495 63.6158 26.2995 63.7568 26.0754C63.8976 25.8507 64.0895 25.6625 64.3168 25.526C64.5807 25.3814 64.879 25.3112 65.1798 25.3231C65.6052 25.3036 66.0258 25.4203 66.3803 25.6563C66.6953 25.8876 66.9475 26.194 67.1139 26.5476L69.8526 24.3795ZM65.3835 26.9844C65.2393 26.9792 65.0959 27.0097 64.9662 27.073C64.8433 27.142 64.7478 27.2512 64.696 27.3822C64.651 27.4898 64.6232 27.6037 64.6136 27.7198C64.6018 27.8439 64.5959 27.998 64.5959 28.1823V28.7228H66.3307V28.2603C66.3333 28.0684 66.3197 27.8766 66.2899 27.687C66.2668 27.5404 66.2057 27.4023 66.1127 27.2866C66.0368 27.1867 65.9372 27.1072 65.823 27.0553C65.683 27.0016 65.5333 26.9775 65.3835 26.9844ZM69.8526 20.6937V24.1625H68.7274V23.2366H64.5365V24.1625H63.4113V20.6928H64.5365V21.6196H68.7274V20.6937H69.8526ZM66.6337 13.7544C67.5308 13.7045 68.4122 14.0054 69.0915 14.5935C69.3944 14.8887 69.631 15.2452 69.7853 15.639C69.9396 16.0329 70.0081 16.4551 69.9864 16.8776C70.0091 17.3019 69.9398 17.726 69.7834 18.121C69.6269 18.516 69.387 18.8725 69.08 19.1662C68.4015 19.7471 67.5257 20.0449 66.6337 19.9982C65.74 20.0461 64.8621 19.7481 64.1821 19.1662C63.8763 18.8718 63.6374 18.5151 63.4818 18.1202C63.3262 17.7253 63.2574 17.3015 63.2801 16.8776C63.258 16.4552 63.3264 16.0329 63.4805 15.639C63.6347 15.2451 63.8712 14.8887 64.1741 14.5935C64.8543 14.0057 65.7361 13.7049 66.6337 13.7544ZM66.6337 15.4245C66.3031 15.4177 65.9732 15.4577 65.6538 15.5433C65.4146 15.6076 65.1894 15.7155 64.9893 15.8613C64.8261 15.984 64.696 16.1454 64.6109 16.3309C64.5353 16.502 64.4964 16.687 64.4966 16.8741C64.4941 17.0597 64.5303 17.2437 64.603 17.4145C64.6908 17.5976 64.8204 17.7575 64.9813 17.8815C65.181 18.0302 65.4071 18.1396 65.6476 18.204C65.9702 18.2921 66.3038 18.3335 66.6381 18.3271C66.9701 18.335 67.3016 18.2956 67.6225 18.2102C67.8588 18.1447 68.0811 18.0362 68.2782 17.8903C68.4438 17.7683 68.5755 17.6061 68.6609 17.419C68.7363 17.2472 68.7753 17.0617 68.7752 16.8741C68.775 16.6827 68.733 16.4937 68.6521 16.3203C68.5655 16.1363 68.4338 15.9772 68.2693 15.8578C68.0709 15.7141 67.849 15.6059 67.6136 15.5379C67.2926 15.4536 66.9611 15.4154 66.6293 15.4245H66.6337ZM69.9908 10.197C70.0385 10.9174 69.8147 11.6296 69.3635 12.1932C69.1268 12.4357 68.8401 12.6238 68.5234 12.7445C68.2067 12.8652 67.8676 12.9157 67.5295 12.8923H63.4104L63.4104 11.2709H67.4294C67.7811 11.2968 68.1319 11.2079 68.4288 11.0175C68.5449 10.9159 68.6352 10.7883 68.6923 10.6451C68.7495 10.5018 68.7718 10.347 68.7575 10.1935C68.7704 10.0419 68.7487 9.88939 68.6941 9.74742C68.6394 9.60545 68.5533 9.47773 68.4421 9.37392C68.1445 9.17277 67.7873 9.07902 67.4294 9.10811H63.4104V7.49024H67.5206C67.8561 7.46841 68.1924 7.51784 68.5075 7.63527C68.8225 7.7527 69.1091 7.93548 69.3485 8.17159C69.8129 8.73859 70.0414 9.4626 69.9864 10.1935L69.9908 10.197ZM69.9696 4.26248C69.9759 4.69997 69.928 5.13656 69.8269 5.56227C69.7378 5.91821 69.6193 6.26614 69.4725 6.60245H67.9406V6.45537C68.2111 6.13824 68.4249 5.77674 68.5723 5.38683C68.7128 5.02537 68.7863 4.64139 68.7894 4.25361C68.7871 4.13113 68.777 4.00891 68.7593 3.88769C68.7461 3.76167 68.7141 3.63833 68.6645 3.52176C68.6178 3.41268 68.5476 3.31526 68.4589 3.23647C68.3616 3.15523 68.2373 3.1135 68.1107 3.11951C68.0347 3.1178 67.9594 3.13419 67.891 3.16731C67.8226 3.20043 67.7631 3.24934 67.7173 3.31001C67.6127 3.44438 67.5376 3.59924 67.4967 3.76453C67.4376 3.98368 67.3827 4.21788 67.3319 4.46715C67.2834 4.70401 67.2198 4.93751 67.1414 5.16622C67.0187 5.58716 66.7716 5.96118 66.4326 6.23918C66.1051 6.46466 65.7135 6.57839 65.3162 6.56347C65.0277 6.56782 64.7426 6.50009 64.4868 6.36641C64.2311 6.23274 64.0127 6.03734 63.8516 5.79795C63.4647 5.23738 63.2698 4.56655 63.2961 3.88592C63.2962 3.50136 63.3354 3.11781 63.413 2.74118C63.4816 2.39128 63.5873 2.0497 63.7285 1.72226H65.1992V1.86491C64.9806 2.12748 64.8053 2.4233 64.68 2.74118C64.5402 3.07822 64.4683 3.43952 64.4683 3.8044C64.4671 3.93204 64.4772 4.05953 64.4984 4.18539C64.522 4.30806 64.5613 4.42717 64.6154 4.5398C64.6619 4.6434 64.7324 4.73449 64.8209 4.80561C64.9063 4.87734 65.0142 4.91657 65.1257 4.91636C65.2002 4.91914 65.2744 4.90458 65.3424 4.87383C65.4103 4.84308 65.4702 4.79698 65.5173 4.73915C65.6518 4.53432 65.7423 4.30382 65.7831 4.06223L65.9258 3.43671C65.977 3.21914 66.0406 3.00467 66.1163 2.79434C66.2372 2.40837 66.4626 2.06338 66.7675 1.79757C67.0787 1.56738 67.46 1.45187 67.8467 1.47063C68.1458 1.463 68.4424 1.52763 68.7112 1.65905C68.9801 1.79046 69.2133 1.98478 69.391 2.22552C69.8058 2.8209 70.0095 3.53795 69.9696 4.26248Z" fill="#00A2FF"/>
</svg>
