<svg width="65" height="49" viewBox="0 0 65 49" fill="none" xmlns="http://www.w3.org/2000/svg">
<path d="M49.4814 48.1953C53.4291 48.1953 57.1405 46.5433 59.932 43.5435C62.7234 40.5437 64.2607 36.5552 64.2607 32.3129C64.2607 30.1315 63.9242 28.0684 63.2603 26.1807C62.5749 24.232 61.5574 22.518 60.236 21.0862C57.4247 18.0402 53.373 16.4303 48.519 16.4303C48.4819 16.4303 48.4537 16.4279 48.4332 16.4251C48.286 15.9948 48.4394 14.149 50.2159 11.0732C52.0783 7.84863 54.8916 4.74933 57.9341 2.57011C58.4128 2.2272 58.6262 1.58802 58.4595 0.996335C58.2929 0.404641 57.7854 1.58249e-05 57.2102 1.58752e-05C54.6961 1.6095e-05 49.1018 1.82608 43.9944 6.85686C39.7552 11.0324 34.702 18.6588 34.702 31.2785C34.702 36.0489 36.2333 40.3839 39.0137 43.4853C41.7369 46.5226 45.4544 48.1953 49.4814 48.1953Z" fill="#2C344F"/>
<path d="M4.3119 43.4853C7.03498 46.5226 10.7524 48.1953 14.7795 48.1953C18.7272 48.1953 22.4386 46.5433 25.2301 43.5435C28.0215 40.5437 29.5588 36.5552 29.5588 32.3129C29.5588 30.1315 29.2223 28.0684 28.5584 26.1807C27.873 24.232 26.8555 22.518 25.5341 21.0862C22.7228 18.0402 18.6711 16.4303 13.817 16.4303C13.78 16.4303 13.7518 16.4279 13.7313 16.4251C13.5841 15.9948 13.7375 14.149 15.514 11.0732C17.3764 7.84855 20.1897 4.74933 23.2322 2.57011C23.7109 2.2272 23.9243 1.58802 23.7576 0.996335C23.5909 0.404641 23.0835 1.58249e-05 22.5083 1.58752e-05C19.9942 1.6095e-05 14.3999 1.82608 9.29251 6.85686C5.05333 11.0324 8.13412e-05 18.6588 8.24444e-05 31.2785C0.000147711 36.0489 1.53145 40.384 4.3119 43.4853Z" fill="#2C344F"/>
</svg>
