<svg width="24" height="18" viewBox="0 0 24 18" fill="none" xmlns="http://www.w3.org/2000/svg">
<path d="M18.4802 18C19.9546 18 21.3407 17.383 22.3833 16.2626C23.4258 15.1423 24 13.6526 24 12.0682C24 11.2535 23.8743 10.483 23.6263 9.778C23.3704 9.05018 22.9903 8.41002 22.4968 7.87529C21.4469 6.73767 19.9336 6.13638 18.1208 6.13638C18.1069 6.13638 18.0964 6.13551 18.0887 6.13446C18.0337 5.97375 18.091 5.28437 18.7545 4.13562C19.4501 2.93131 20.5008 1.77378 21.6371 0.959887C21.8159 0.831816 21.8956 0.593096 21.8334 0.372112C21.7711 0.151127 21.5816 5.93347e-06 21.3668 5.95225e-06C20.4278 6.03434e-06 18.3384 0.682005 16.4309 2.5609C14.8477 4.12037 12.9604 6.96869 12.9604 11.6819C12.9604 13.4635 13.5323 15.0826 14.5707 16.2409C15.5878 17.3753 16.9762 18 18.4802 18Z" fill="#00A2FF"/>
<path d="M1.61032 16.2409C2.62733 17.3753 4.01572 18 5.51974 18C6.99413 18 8.3803 17.383 9.42283 16.2626C10.4654 15.1423 11.0396 13.6526 11.0396 12.0682C11.0396 11.2535 10.9138 10.483 10.6659 9.778C10.4099 9.05018 10.0299 8.41002 9.53638 7.87529C8.48643 6.73767 6.97319 6.13638 5.16029 6.13638C5.14645 6.13638 5.13592 6.13551 5.12829 6.13446C5.0733 5.97375 5.13058 5.28437 5.79407 4.13562C6.48967 2.93128 7.54035 1.77378 8.67668 0.959887C8.85546 0.831816 8.93517 0.593096 8.87291 0.372112C8.81066 0.151127 8.62113 5.93347e-06 8.4063 5.95225e-06C7.46734 6.03434e-06 5.378 0.682005 3.47047 2.5609C1.88723 4.12037 -6.29532e-05 6.96869 -6.25412e-05 11.6819C-3.85436e-05 13.4636 0.571872 15.0826 1.61032 16.2409Z" fill="#00A2FF"/>
</svg>
